<?xml version="1.0" encoding="UTF-8"?><svg xmlns="http://www.w3.org/2000/svg" xmlns:xlink="http://www.w3.org/1999/xlink" width="37.5pt" zoomAndPan="magnify" viewBox="0 0 37.5 37.499999" height="37.499999pt" preserveAspectRatio="xMidYMid meet" version="1.2"><defs><clipPath xml:id="clip1" id="clip1"><path d="M 0 0 L 37.007812 0 L 37.007812 37.007812 L 0 37.007812 Z M 0 0 "/></clipPath><clipPath xml:id="clip2" id="clip2"><path d="M 24 15 L 33.914062 15 L 33.914062 25 L 24 25 Z M 24 15 "/></clipPath><clipPath xml:id="clip3" id="clip3"><path d="M 7 18 L 30 18 L 30 28.488281 L 7 28.488281 Z M 7 18 "/></clipPath><clipPath xml:id="clip4" id="clip4"><path d="M 4.664062 9 L 11 9 L 11 19 L 4.664062 19 Z M 4.664062 9 "/></clipPath></defs><g xml:id="surface1" id="surface1"><g clip-rule="nonzero" clip-path="url(#clip1)"><path style=" stroke:none;fill-rule:nonzero;fill:rgb(100%,100%,100%);fill-opacity:1;" d="M 0 0 L 37.5 0 L 37.5 45 L 0 45 Z M 0 0 "/><path style=" stroke:none;fill-rule:nonzero;fill:rgb(100%,100%,100%);fill-opacity:1;" d="M 0 0 L 37.5 0 L 37.5 37.5 L 0 37.5 Z M 0 0 "/><path style=" stroke:none;fill-rule:nonzero;fill:rgb(36.079407%,88.238525%,90.19928%);fill-opacity:1;" d="M 0 0 L 37.5 0 L 37.5 37.5 L 0 37.5 Z M 0 0 "/></g><path style=" stroke:none;fill-rule:nonzero;fill:rgb(0%,0%,0%);fill-opacity:1;" d="M 15.34375 16.007812 C 15.207031 15.804688 14.933594 15.738281 14.707031 15.871094 L 11.511719 17.910156 C 11.375 18 11.308594 18.136719 11.308594 18.296875 C 11.308594 18.453125 11.375 18.589844 11.511719 18.679688 L 14.707031 20.71875 C 14.773438 20.765625 14.863281 20.789062 14.957031 20.789062 C 15.117188 20.789062 15.253906 20.71875 15.34375 20.582031 C 15.480469 20.378906 15.414062 20.085938 15.207031 19.949219 L 12.609375 18.296875 L 15.207031 16.644531 C 15.414062 16.507812 15.480469 16.210938 15.34375 16.007812 Z M 15.34375 16.007812 "/><path style=" stroke:none;fill-rule:nonzero;fill:rgb(0%,0%,0%);fill-opacity:1;" d="M 23.417969 17.910156 L 20.222656 15.871094 C 20.019531 15.738281 19.722656 15.804688 19.585938 16.007812 C 19.449219 16.210938 19.515625 16.507812 19.722656 16.644531 L 22.320312 18.296875 L 19.722656 19.949219 C 19.515625 20.085938 19.449219 20.355469 19.585938 20.582031 C 19.675781 20.71875 19.8125 20.789062 19.972656 20.789062 C 20.0625 20.789062 20.132812 20.765625 20.222656 20.71875 L 23.417969 18.679688 C 23.554688 18.589844 23.621094 18.453125 23.621094 18.296875 C 23.621094 18.136719 23.554688 18 23.417969 17.910156 Z M 23.417969 17.910156 "/><path style=" stroke:none;fill-rule:nonzero;fill:rgb(0%,0%,0%);fill-opacity:1;" d="M 16.550781 21.242188 C 16.734375 21.242188 16.917969 21.128906 16.984375 20.945312 L 18.808594 15.964844 C 18.902344 15.738281 18.765625 15.464844 18.535156 15.375 C 18.308594 15.285156 18.035156 15.421875 17.945312 15.648438 L 16.121094 20.628906 C 16.027344 20.855469 16.164062 21.128906 16.394531 21.21875 C 16.4375 21.242188 16.507812 21.242188 16.550781 21.242188 Z M 16.550781 21.242188 "/><g clip-rule="nonzero" clip-path="url(#clip2)"><path style=" stroke:none;fill-rule:nonzero;fill:rgb(0%,0%,0%);fill-opacity:1;" d="M 33.015625 18.273438 C 32.992188 18.183594 32.949219 18.113281 32.925781 18.023438 C 33.039062 17.84375 33.085938 17.640625 33.085938 17.4375 C 33.085938 17.140625 32.972656 16.871094 32.765625 16.644531 L 32.332031 16.210938 C 32.128906 16.007812 31.832031 15.894531 31.535156 15.894531 C 31.328125 15.894531 31.125 15.964844 30.941406 16.054688 C 30.851562 16.007812 30.78125 15.984375 30.691406 15.964844 C 30.578125 15.464844 30.144531 15.101562 29.597656 15.101562 L 28.980469 15.101562 C 28.457031 15.101562 28 15.464844 27.886719 15.964844 C 27.792969 15.984375 27.726562 16.03125 27.636719 16.054688 C 27.453125 15.941406 27.246094 15.894531 27.042969 15.894531 C 26.746094 15.894531 26.472656 16.007812 26.242188 16.210938 L 25.8125 16.644531 C 25.605469 16.847656 25.492188 17.140625 25.492188 17.4375 C 25.492188 17.640625 25.558594 17.84375 25.652344 18.023438 C 25.605469 18.113281 25.582031 18.183594 25.558594 18.273438 C 25.058594 18.386719 24.691406 18.816406 24.691406 19.359375 L 24.691406 19.972656 C 24.691406 20.492188 25.058594 20.945312 25.558594 21.058594 C 25.582031 21.148438 25.628906 21.21875 25.652344 21.308594 C 25.535156 21.488281 25.492188 21.695312 25.492188 21.898438 C 25.492188 22.191406 25.605469 22.464844 25.8125 22.691406 L 26.242188 23.121094 C 26.449219 23.324219 26.746094 23.4375 27.042969 23.4375 C 27.246094 23.4375 27.453125 23.371094 27.636719 23.277344 C 27.726562 23.324219 27.792969 23.347656 27.886719 23.371094 C 28 23.867188 28.433594 24.230469 28.980469 24.230469 L 29.597656 24.230469 C 30.121094 24.230469 30.578125 23.867188 30.691406 23.371094 C 30.78125 23.347656 30.851562 23.300781 30.941406 23.277344 C 31.125 23.390625 31.328125 23.4375 31.535156 23.4375 C 31.832031 23.4375 32.105469 23.324219 32.332031 23.121094 L 32.765625 22.691406 C 32.972656 22.484375 33.085938 22.191406 33.085938 21.898438 C 33.085938 21.695312 33.015625 21.488281 32.925781 21.308594 C 32.972656 21.21875 32.992188 21.148438 33.015625 21.058594 C 33.519531 20.945312 33.882812 20.515625 33.882812 19.972656 L 33.882812 19.359375 C 33.882812 18.839844 33.519531 18.386719 33.015625 18.273438 Z M 32.972656 19.949219 C 32.972656 20.0625 32.878906 20.152344 32.765625 20.152344 L 32.308594 20.152344 C 32.242188 20.605469 32.058594 21.035156 31.785156 21.398438 L 32.105469 21.714844 C 32.171875 21.785156 32.171875 21.921875 32.105469 22.011719 L 31.671875 22.441406 C 31.625 22.484375 31.578125 22.507812 31.535156 22.507812 C 31.488281 22.507812 31.421875 22.484375 31.398438 22.441406 L 31.078125 22.125 C 30.714844 22.371094 30.28125 22.554688 29.824219 22.644531 L 29.824219 23.097656 C 29.824219 23.210938 29.734375 23.300781 29.617188 23.300781 L 29.003906 23.300781 C 28.890625 23.300781 28.796875 23.210938 28.796875 23.097656 L 28.796875 22.644531 C 28.339844 22.578125 27.910156 22.394531 27.542969 22.125 L 27.222656 22.441406 C 27.179688 22.484375 27.132812 22.507812 27.085938 22.507812 C 27.042969 22.507812 26.972656 22.484375 26.949219 22.441406 L 26.515625 22.011719 C 26.449219 21.941406 26.449219 21.808594 26.515625 21.714844 L 26.835938 21.398438 C 26.585938 21.035156 26.402344 20.605469 26.3125 20.152344 L 25.855469 20.152344 C 25.742188 20.152344 25.652344 20.0625 25.652344 19.949219 L 25.652344 19.339844 C 25.652344 19.226562 25.742188 19.132812 25.855469 19.132812 L 26.3125 19.132812 C 26.378906 18.679688 26.5625 18.25 26.835938 17.890625 L 26.515625 17.570312 C 26.449219 17.503906 26.449219 17.367188 26.515625 17.277344 L 26.949219 16.847656 C 26.996094 16.800781 27.042969 16.777344 27.085938 16.777344 C 27.132812 16.777344 27.203125 16.800781 27.222656 16.847656 L 27.542969 17.164062 C 27.910156 16.914062 28.339844 16.734375 28.796875 16.644531 L 28.796875 16.191406 C 28.796875 16.078125 28.890625 15.984375 29.003906 15.984375 L 29.617188 15.984375 C 29.734375 15.984375 29.824219 16.078125 29.824219 16.191406 L 29.824219 16.644531 C 30.28125 16.710938 30.714844 16.890625 31.078125 17.164062 L 31.398438 16.847656 C 31.441406 16.800781 31.488281 16.777344 31.535156 16.777344 C 31.578125 16.777344 31.648438 16.800781 31.671875 16.847656 L 32.105469 17.277344 C 32.171875 17.34375 32.171875 17.480469 32.105469 17.570312 L 31.785156 17.890625 C 32.035156 18.25 32.21875 18.679688 32.308594 19.132812 L 32.765625 19.132812 C 32.878906 19.132812 32.972656 19.226562 32.972656 19.339844 Z M 32.972656 19.949219 "/></g><path style=" stroke:none;fill-rule:nonzero;fill:rgb(0%,0%,0%);fill-opacity:1;" d="M 29.324219 18.070312 C 28.433594 18.070312 27.726562 18.773438 27.726562 19.65625 C 27.726562 20.539062 28.433594 21.242188 29.324219 21.242188 C 30.210938 21.242188 30.917969 20.539062 30.917969 19.65625 C 30.917969 18.773438 30.210938 18.070312 29.324219 18.070312 Z M 29.324219 20.335938 C 28.933594 20.335938 28.636719 20.039062 28.636719 19.65625 C 28.636719 19.269531 28.933594 18.976562 29.324219 18.976562 C 29.710938 18.976562 30.007812 19.269531 30.007812 19.65625 C 30.007812 20.039062 29.710938 20.335938 29.324219 20.335938 Z M 29.324219 20.335938 "/><g clip-rule="nonzero" clip-path="url(#clip3)"><path style=" stroke:none;fill-rule:nonzero;fill:rgb(0%,0%,0%);fill-opacity:1;" d="M 28.636719 25.996094 C 29.253906 25.996094 29.753906 25.613281 29.9375 25.066406 C 29.847656 25.089844 29.734375 25.089844 29.617188 25.089844 L 29.003906 25.089844 C 28.910156 25.089844 28.820312 25.089844 28.753906 25.066406 C 28.707031 25.066406 28.683594 25.089844 28.636719 25.089844 L 8.570312 25.089844 C 8.320312 25.089844 8.117188 24.886719 8.117188 24.636719 L 8.117188 18.929688 C 7.980469 18.953125 7.820312 18.976562 7.660156 18.976562 C 7.5 18.976562 7.339844 18.953125 7.203125 18.929688 L 7.203125 24.636719 C 7.203125 25.386719 7.820312 25.996094 8.570312 25.996094 L 16.78125 25.996094 L 16.78125 27.582031 L 15.414062 27.582031 C 15.160156 27.582031 14.957031 27.785156 14.957031 28.035156 C 14.957031 28.285156 15.160156 28.488281 15.414062 28.488281 L 21.796875 28.488281 C 22.046875 28.488281 22.253906 28.285156 22.253906 28.035156 C 22.253906 27.785156 22.046875 27.582031 21.796875 27.582031 L 20.429688 27.582031 L 20.429688 25.996094 Z M 19.515625 27.582031 L 17.691406 27.582031 L 17.691406 25.996094 L 19.515625 25.996094 Z M 19.515625 27.582031 "/></g><path style=" stroke:none;fill-rule:nonzero;fill:rgb(0%,0%,0%);fill-opacity:1;" d="M 29.617188 14.21875 C 29.753906 14.21875 29.871094 14.242188 30.007812 14.265625 L 30.007812 11.953125 C 30.007812 11.207031 29.390625 10.597656 28.636719 10.597656 L 11.332031 10.597656 C 11.421875 10.890625 11.488281 11.183594 11.511719 11.5 L 28.636719 11.5 C 28.890625 11.5 29.09375 11.707031 29.09375 11.953125 L 29.09375 14.21875 Z M 29.617188 14.21875 "/><g clip-rule="nonzero" clip-path="url(#clip4)"><path style=" stroke:none;fill-rule:nonzero;fill:rgb(0%,0%,0%);fill-opacity:1;" d="M 6.085938 14.445312 L 6.085938 16.460938 C 6.085938 17.34375 6.792969 18.070312 7.660156 18.070312 C 8.527344 18.070312 9.234375 17.34375 9.234375 16.460938 L 9.234375 14.445312 C 10.097656 13.902344 10.625 12.929688 10.625 11.863281 C 10.625 10.617188 9.894531 9.507812 8.753906 9.035156 C 8.617188 8.988281 8.457031 8.988281 8.320312 9.078125 C 8.183594 9.167969 8.117188 9.304688 8.117188 9.464844 L 8.117188 11.726562 L 7.203125 11.726562 L 7.203125 9.464844 C 7.203125 9.304688 7.136719 9.167969 6.996094 9.078125 C 6.859375 8.988281 6.703125 8.988281 6.566406 9.035156 C 5.425781 9.484375 4.695312 10.597656 4.695312 11.863281 C 4.695312 12.929688 5.21875 13.902344 6.085938 14.445312 Z M 6.292969 10.277344 L 6.292969 11.707031 C 6.292969 12.203125 6.703125 12.613281 7.203125 12.613281 L 8.117188 12.613281 C 8.617188 12.613281 9.027344 12.203125 9.027344 11.707031 L 9.027344 10.277344 C 9.460938 10.664062 9.710938 11.253906 9.710938 11.863281 C 9.710938 12.679688 9.277344 13.40625 8.570312 13.765625 C 8.410156 13.835938 8.320312 13.992188 8.320312 14.175781 L 8.320312 16.460938 C 8.320312 16.847656 8.023438 17.164062 7.660156 17.164062 C 7.292969 17.164062 6.996094 16.847656 6.996094 16.460938 L 6.996094 14.175781 C 6.996094 14.015625 6.90625 13.855469 6.746094 13.765625 C 6.039062 13.40625 5.605469 12.679688 5.605469 11.863281 C 5.605469 11.253906 5.859375 10.6875 6.292969 10.277344 Z M 6.292969 10.277344 "/></g></g></svg>