<?xml version="1.0" encoding="UTF-8"?><svg xmlns="http://www.w3.org/2000/svg" xmlns:xlink="http://www.w3.org/1999/xlink" width="37.5pt" zoomAndPan="magnify" viewBox="0 0 37.5 37.499999" height="37.499999pt" preserveAspectRatio="xMidYMid meet" version="1.2"><defs><clipPath xml:id="clip1" id="clip1"><path d="M 0 0 L 37.007812 0 L 37.007812 37.007812 L 0 37.007812 Z M 0 0 "/></clipPath><clipPath xml:id="clip2" id="clip2"><path d="M 5.242188 11 L 30 11 L 30 28.800781 L 5.242188 28.800781 Z M 5.242188 11 "/></clipPath><clipPath xml:id="clip3" id="clip3"><path d="M 22 5.550781 L 32.242188 5.550781 L 32.242188 21 L 22 21 Z M 22 5.550781 "/></clipPath></defs><g xml:id="surface1" id="surface1"><g clip-rule="nonzero" clip-path="url(#clip1)"><path style=" stroke:none;fill-rule:nonzero;fill:rgb(100%,100%,100%);fill-opacity:1;" d="M 0 0 L 37.5 0 L 37.5 45 L 0 45 Z M 0 0 "/><path style=" stroke:none;fill-rule:nonzero;fill:rgb(100%,100%,100%);fill-opacity:1;" d="M 0 0 L 37.5 0 L 37.5 37.5 L 0 37.5 Z M 0 0 "/><path style=" stroke:none;fill-rule:nonzero;fill:rgb(36.079407%,88.238525%,90.19928%);fill-opacity:1;" d="M 0 0 L 37.5 0 L 37.5 37.5 L 0 37.5 Z M 0 0 "/></g><g clip-rule="nonzero" clip-path="url(#clip2)"><path style=" stroke:none;fill-rule:nonzero;fill:rgb(6.269836%,5.879211%,5.099487%);fill-opacity:1;" d="M 28.917969 15.488281 C 28.671875 15.488281 28.472656 15.6875 28.472656 15.933594 L 28.472656 27.023438 C 28.472656 27.515625 28.070312 27.914062 27.578125 27.914062 L 7.042969 27.914062 C 6.554688 27.914062 6.152344 27.515625 6.152344 27.023438 L 6.152344 13.714844 C 6.152344 13.226562 6.554688 12.828125 7.042969 12.828125 L 24.039062 12.828125 C 24.285156 12.828125 24.484375 12.628906 24.484375 12.382812 C 24.484375 12.140625 24.285156 11.9375 24.039062 11.9375 L 7.042969 11.9375 C 6.058594 11.9375 5.257812 12.734375 5.257812 13.714844 L 5.257812 27.023438 C 5.257812 28.003906 6.058594 28.800781 7.042969 28.800781 L 27.578125 28.800781 C 28.566406 28.800781 29.367188 28.003906 29.367188 27.023438 L 29.367188 15.933594 C 29.367188 15.6875 29.164062 15.488281 28.917969 15.488281 "/></g><path style=" stroke:none;fill-rule:nonzero;fill:rgb(6.269836%,5.879211%,5.099487%);fill-opacity:1;" d="M 9.277344 17.707031 L 8.382812 17.707031 L 8.382812 16.820312 L 9.277344 16.820312 Z M 10.167969 16.375 C 10.167969 16.132812 9.96875 15.933594 9.722656 15.933594 L 7.9375 15.933594 C 7.691406 15.933594 7.492188 16.132812 7.492188 16.375 L 7.492188 18.152344 C 7.492188 18.394531 7.691406 18.59375 7.9375 18.59375 L 9.722656 18.59375 C 9.96875 18.59375 10.167969 18.394531 10.167969 18.152344 L 10.167969 16.375 "/><path style=" stroke:none;fill-rule:nonzero;fill:rgb(6.269836%,5.879211%,5.099487%);fill-opacity:1;" d="M 9.277344 21.257812 L 8.382812 21.257812 L 8.382812 20.371094 L 9.277344 20.371094 Z M 10.167969 19.925781 C 10.167969 19.683594 9.96875 19.480469 9.722656 19.480469 L 7.9375 19.480469 C 7.691406 19.480469 7.492188 19.683594 7.492188 19.925781 L 7.492188 21.699219 C 7.492188 21.945312 7.691406 22.144531 7.9375 22.144531 L 9.722656 22.144531 C 9.96875 22.144531 10.167969 21.945312 10.167969 21.699219 L 10.167969 19.925781 "/><path style=" stroke:none;fill-rule:nonzero;fill:rgb(6.269836%,5.879211%,5.099487%);fill-opacity:1;" d="M 7.9375 24.808594 C 7.691406 24.808594 7.492188 25.007812 7.492188 25.25 C 7.492188 25.496094 7.691406 25.695312 7.9375 25.695312 L 9.722656 25.695312 C 9.96875 25.695312 10.167969 25.496094 10.167969 25.25 L 10.167969 23.476562 C 10.167969 23.230469 9.96875 23.03125 9.722656 23.03125 L 7.9375 23.03125 C 7.691406 23.03125 7.492188 23.230469 7.492188 23.476562 C 7.492188 23.71875 7.691406 23.917969 7.9375 23.917969 L 9.277344 23.917969 L 9.277344 24.808594 L 7.9375 24.808594 "/><path style=" stroke:none;fill-rule:nonzero;fill:rgb(6.269836%,5.879211%,5.099487%);fill-opacity:1;" d="M 14.1875 18.699219 L 15.25 20.8125 L 13.125 20.8125 Z M 16.417969 19.585938 L 17.035156 20.8125 L 16.25 20.8125 L 16.027344 20.371094 Z M 19.542969 16.820312 C 19.789062 16.820312 19.992188 16.621094 19.992188 16.375 L 19.992188 15.046875 C 19.992188 14.800781 19.789062 14.601562 19.542969 14.601562 L 12.402344 14.601562 C 12.15625 14.601562 11.957031 14.800781 11.957031 15.046875 L 11.957031 21.257812 C 11.957031 21.5 12.15625 21.699219 12.402344 21.699219 L 19.542969 21.699219 C 19.789062 21.699219 19.992188 21.5 19.992188 21.257812 L 19.992188 18.152344 C 19.992188 17.90625 19.789062 17.707031 19.542969 17.707031 C 19.296875 17.707031 19.097656 17.90625 19.097656 18.152344 L 19.097656 20.8125 L 18.035156 20.8125 L 16.820312 18.394531 C 16.667969 18.097656 16.171875 18.097656 16.019531 18.394531 L 15.527344 19.378906 L 14.585938 17.507812 C 14.433594 17.207031 13.941406 17.207031 13.789062 17.507812 L 12.847656 19.378906 L 12.847656 15.488281 L 19.097656 15.488281 L 19.097656 16.375 C 19.097656 16.621094 19.296875 16.820312 19.542969 16.820312 "/><path style=" stroke:none;fill-rule:nonzero;fill:rgb(6.269836%,5.879211%,5.099487%);fill-opacity:1;" d="M 16.867188 16.820312 C 16.867188 17.066406 17.066406 17.265625 17.3125 17.265625 C 17.558594 17.265625 17.757812 17.066406 17.757812 16.820312 C 17.757812 16.574219 17.558594 16.375 17.3125 16.375 C 17.066406 16.375 16.867188 16.574219 16.867188 16.820312 "/><path style=" stroke:none;fill-rule:nonzero;fill:rgb(6.269836%,5.879211%,5.099487%);fill-opacity:1;" d="M 14.632812 25.25 L 12.847656 25.25 L 12.847656 23.476562 L 14.632812 23.476562 Z M 12.402344 22.589844 C 12.15625 22.589844 11.957031 22.789062 11.957031 23.03125 L 11.957031 25.695312 C 11.957031 25.9375 12.15625 26.136719 12.402344 26.136719 L 15.082031 26.136719 C 15.328125 26.136719 15.527344 25.9375 15.527344 25.695312 L 15.527344 23.03125 C 15.527344 22.789062 15.328125 22.589844 15.082031 22.589844 L 12.402344 22.589844 "/><path style=" stroke:none;fill-rule:nonzero;fill:rgb(6.269836%,5.879211%,5.099487%);fill-opacity:1;" d="M 19.097656 25.25 L 17.3125 25.25 L 17.3125 23.476562 L 19.097656 23.476562 Z M 19.542969 22.589844 L 16.867188 22.589844 C 16.621094 22.589844 16.417969 22.789062 16.417969 23.03125 L 16.417969 25.695312 C 16.417969 25.9375 16.621094 26.136719 16.867188 26.136719 L 19.542969 26.136719 C 19.789062 26.136719 19.992188 25.9375 19.992188 25.695312 L 19.992188 23.03125 C 19.992188 22.789062 19.789062 22.589844 19.542969 22.589844 "/><path style=" stroke:none;fill-rule:nonzero;fill:rgb(6.269836%,5.879211%,5.099487%);fill-opacity:1;" d="M 22.816406 15.488281 C 23.0625 15.488281 23.265625 15.289062 23.265625 15.046875 C 23.265625 14.800781 23.0625 14.601562 22.816406 14.601562 L 21.332031 14.601562 C 21.085938 14.601562 20.882812 14.800781 20.882812 15.046875 L 20.882812 25.695312 C 20.882812 25.9375 21.085938 26.136719 21.332031 26.136719 L 26.6875 26.136719 C 26.933594 26.136719 27.132812 25.9375 27.132812 25.695312 L 27.132812 19.570312 C 27.132812 19.324219 26.933594 19.125 26.6875 19.125 C 26.441406 19.125 26.242188 19.324219 26.242188 19.570312 L 26.242188 25.25 L 21.777344 25.25 L 21.777344 15.488281 L 22.816406 15.488281 "/><path style=" stroke:none;fill-rule:nonzero;fill:rgb(6.269836%,5.879211%,5.099487%);fill-opacity:1;" d="M 23.117188 22.589844 L 24.902344 22.589844 C 25.148438 22.589844 25.347656 22.390625 25.347656 22.144531 C 25.347656 21.898438 25.148438 21.699219 24.902344 21.699219 L 23.117188 21.699219 C 22.871094 21.699219 22.667969 21.898438 22.667969 22.144531 C 22.667969 22.390625 22.871094 22.589844 23.117188 22.589844 "/><path style=" stroke:none;fill-rule:nonzero;fill:rgb(6.269836%,5.879211%,5.099487%);fill-opacity:1;" d="M 23.117188 24.363281 L 24.902344 24.363281 C 25.148438 24.363281 25.347656 24.164062 25.347656 23.917969 C 25.347656 23.675781 25.148438 23.476562 24.902344 23.476562 L 23.117188 23.476562 C 22.871094 23.476562 22.667969 23.675781 22.667969 23.917969 C 22.667969 24.164062 22.871094 24.363281 23.117188 24.363281 "/><g clip-rule="nonzero" clip-path="url(#clip3)"><path style=" stroke:none;fill-rule:nonzero;fill:rgb(6.269836%,5.879211%,5.099487%);fill-opacity:1;" d="M 31.359375 5.910156 C 30.714844 5.539062 29.90625 5.742188 29.511719 6.367188 L 22.902344 16.921875 C 22.859375 16.984375 22.839844 17.054688 22.835938 17.128906 L 22.65625 20.101562 C 22.644531 20.269531 22.730469 20.429688 22.875 20.511719 C 22.945312 20.550781 23.023438 20.570312 23.101562 20.570312 C 23.1875 20.570312 23.269531 20.546875 23.347656 20.496094 L 25.84375 18.859375 C 25.90625 18.816406 25.957031 18.761719 25.992188 18.695312 L 30.199219 10.863281 C 30.316406 10.648438 30.234375 10.378906 30.015625 10.261719 C 29.800781 10.148438 29.527344 10.230469 29.414062 10.445312 L 25.257812 18.179688 L 23.601562 19.269531 L 23.71875 17.296875 L 30.269531 6.839844 C 30.40625 6.621094 30.6875 6.550781 30.914062 6.679688 C 31.136719 6.808594 31.21875 7.085938 31.09375 7.3125 L 30.253906 8.878906 C 30.136719 9.09375 30.21875 9.363281 30.4375 9.480469 C 30.65625 9.59375 30.925781 9.511719 31.042969 9.296875 L 31.882812 7.730469 C 32.234375 7.078125 32.003906 6.277344 31.359375 5.910156 "/></g></g></svg>