<?xml version="1.0" encoding="UTF-8"?><svg xmlns="http://www.w3.org/2000/svg" xmlns:xlink="http://www.w3.org/1999/xlink" width="37.5pt" zoomAndPan="magnify" viewBox="0 0 37.5 37.499999" height="37.499999pt" preserveAspectRatio="xMidYMid meet" version="1.2"><defs><clipPath xml:id="clip1" id="clip1"><path d="M 0 0 L 37.007812 0 L 37.007812 37.007812 L 0 37.007812 Z M 0 0 "/></clipPath><clipPath xml:id="clip2" id="clip2"><path d="M 7.285156 10 L 29.785156 10 L 29.785156 27 L 7.285156 27 Z M 7.285156 10 "/></clipPath><clipPath xml:id="clip3" id="clip3"><path d="M 7.285156 24 L 29.785156 24 L 29.785156 26 L 7.285156 26 Z M 7.285156 24 "/></clipPath><clipPath xml:id="clip4" id="clip4"><path d="M 13 28 L 24 28 L 24 29.785156 L 13 29.785156 Z M 13 28 "/></clipPath><clipPath xml:id="clip5" id="clip5"><path d="M 14 25 L 17 25 L 17 29.785156 L 14 29.785156 Z M 14 25 "/></clipPath><clipPath xml:id="clip6" id="clip6"><path d="M 20 25 L 23 25 L 23 29.785156 L 20 29.785156 Z M 20 25 "/></clipPath><clipPath xml:id="clip7" id="clip7"><path d="M 15 7.285156 L 29 7.285156 L 29 20 L 15 20 Z M 15 7.285156 "/></clipPath></defs><g xml:id="surface1" id="surface1"><g clip-rule="nonzero" clip-path="url(#clip1)"><path style=" stroke:none;fill-rule:nonzero;fill:rgb(100%,100%,100%);fill-opacity:1;" d="M 0 0 L 37.5 0 L 37.5 45 L 0 45 Z M 0 0 "/><path style=" stroke:none;fill-rule:nonzero;fill:rgb(100%,100%,100%);fill-opacity:1;" d="M 0 0 L 37.5 0 L 37.5 37.5 L 0 37.5 Z M 0 0 "/><path style=" stroke:none;fill-rule:nonzero;fill:rgb(36.079407%,88.238525%,90.19928%);fill-opacity:1;" d="M 0 0 L 37.5 0 L 37.5 37.5 L 0 37.5 Z M 0 0 "/></g><g clip-rule="nonzero" clip-path="url(#clip2)"><path style=" stroke:none;fill-rule:nonzero;fill:rgb(0%,0%,0%);fill-opacity:1;" d="M 28.820312 25.984375 L 8.25 25.984375 L 8.25 11.023438 L 20.246094 11.023438 C 20.503906 11.023438 20.714844 10.816406 20.714844 10.558594 C 20.714844 10.300781 20.503906 10.089844 20.246094 10.089844 L 7.785156 10.089844 C 7.527344 10.089844 7.316406 10.300781 7.316406 10.558594 L 7.316406 26.449219 C 7.316406 26.707031 7.527344 26.917969 7.785156 26.917969 L 29.285156 26.917969 C 29.542969 26.917969 29.753906 26.707031 29.753906 26.449219 L 29.753906 10.558594 C 29.753906 10.300781 29.542969 10.089844 29.285156 10.089844 C 29.027344 10.089844 28.820312 10.300781 28.820312 10.558594 Z M 28.820312 25.984375 "/></g><g clip-rule="nonzero" clip-path="url(#clip3)"><path style=" stroke:none;fill-rule:nonzero;fill:rgb(0%,0%,0%);fill-opacity:1;" d="M 7.785156 25.046875 L 29.285156 25.046875 C 29.542969 25.046875 29.753906 24.839844 29.753906 24.582031 C 29.753906 24.324219 29.542969 24.113281 29.285156 24.113281 L 7.785156 24.113281 C 7.527344 24.113281 7.316406 24.324219 7.316406 24.582031 C 7.316406 24.839844 7.527344 25.046875 7.785156 25.046875 Z M 7.785156 25.046875 "/></g><g clip-rule="nonzero" clip-path="url(#clip4)"><path style=" stroke:none;fill-rule:nonzero;fill:rgb(0%,0%,0%);fill-opacity:1;" d="M 14.328125 29.722656 L 22.742188 29.722656 C 23 29.722656 23.210938 29.511719 23.210938 29.253906 C 23.210938 28.996094 23 28.789062 22.742188 28.789062 L 14.328125 28.789062 C 14.070312 28.789062 13.859375 28.996094 13.859375 29.253906 C 13.859375 29.511719 14.070312 29.722656 14.328125 29.722656 Z M 14.328125 29.722656 "/></g><g clip-rule="nonzero" clip-path="url(#clip5)"><path style=" stroke:none;fill-rule:nonzero;fill:rgb(0%,0%,0%);fill-opacity:1;" d="M 15.707031 29.402344 L 16.640625 26.597656 C 16.722656 26.351562 16.589844 26.085938 16.347656 26.007812 C 16.101562 25.925781 15.835938 26.058594 15.753906 26.300781 L 14.820312 29.105469 C 14.738281 29.351562 14.871094 29.617188 15.113281 29.699219 C 15.359375 29.78125 15.625 29.648438 15.707031 29.402344 Z M 15.707031 29.402344 "/></g><g clip-rule="nonzero" clip-path="url(#clip6)"><path style=" stroke:none;fill-rule:nonzero;fill:rgb(0%,0%,0%);fill-opacity:1;" d="M 21.363281 29.402344 L 20.429688 26.597656 C 20.347656 26.351562 20.480469 26.085938 20.722656 26.007812 C 20.96875 25.925781 21.234375 26.058594 21.316406 26.300781 L 22.25 29.105469 C 22.332031 29.351562 22.199219 29.617188 21.957031 29.699219 C 21.710938 29.78125 21.445312 29.648438 21.363281 29.402344 Z M 21.363281 29.402344 "/></g><g clip-rule="nonzero" clip-path="url(#clip7)"><path style=" stroke:none;fill-rule:nonzero;fill:rgb(0%,0%,0%);fill-opacity:1;" d="M 27.304688 11.480469 L 17.738281 19.878906 C 17.648438 19.957031 17.222656 19.355469 16.746094 18.886719 C 16.230469 18.378906 15.671875 17.996094 15.757812 17.898438 L 24.15625 8.332031 C 25.023438 7.355469 26.480469 7.3125 27.402344 8.234375 C 28.328125 9.15625 28.28125 10.613281 27.304688 11.480469 Z M 26.742188 8.894531 C 26.199219 8.355469 25.367188 8.378906 24.859375 8.949219 L 16.746094 18.183594 L 17.453125 18.886719 L 26.683594 10.78125 C 27.257812 10.269531 27.285156 9.4375 26.742188 8.894531 Z M 26.742188 8.894531 "/></g><path style=" stroke:none;fill-rule:nonzero;fill:rgb(0%,0%,0%);fill-opacity:1;" d="M 11.746094 22.152344 C 11.464844 21.925781 11.535156 21.480469 11.871094 21.351562 C 12.472656 21.125 12.785156 20.699219 13.210938 19.71875 C 13.589844 18.84375 13.695312 18.636719 13.992188 18.339844 C 14.90625 17.425781 16.386719 17.425781 17.296875 18.339844 C 18.210938 19.25 18.210938 20.730469 17.296875 21.644531 C 16.070312 22.871094 13.347656 23.4375 11.746094 22.152344 Z M 16.636719 20.980469 C 17.183594 20.433594 17.183594 19.546875 16.636719 19 C 16.089844 18.453125 15.203125 18.453125 14.652344 19 C 14.480469 19.175781 14.386719 19.355469 14.070312 20.089844 C 13.726562 20.882812 13.417969 21.410156 12.980469 21.777344 C 14.195312 22.203125 15.863281 21.757812 16.636719 20.980469 Z M 16.636719 20.980469 "/><path style=" stroke:none;fill-rule:nonzero;fill:rgb(0%,0%,0%);fill-opacity:1;" d="M 17.703125 16.582031 L 19.050781 17.925781 C 19.234375 18.105469 19.527344 18.105469 19.710938 17.925781 C 19.894531 17.742188 19.894531 17.445312 19.710938 17.261719 L 18.363281 15.921875 C 18.179688 15.738281 17.882812 15.742188 17.699219 15.921875 C 17.515625 16.105469 17.519531 16.398438 17.703125 16.582031 Z M 17.703125 16.582031 "/></g></svg>